<svg width="30" height="30" viewBox="0 0 30 30" fill="none" xmlns="http://www.w3.org/2000/svg">
<rect width="30" height="30" fill="#1E1E1E"/>
<path id="Rectangle 55" d="M-616 -2413H4357.5V3594H-616L-616 -2413Z" fill="#D9D9D9" fill-opacity="0.54"/>
<g id="Web - Light" clip-path="url(#clip0_0_1)">
<rect width="1440" height="4726" transform="translate(-235 -2085)" fill="#F4F6FB"/>
<g id="Web - Content 2">
<rect id="Rectangle 12" x="-89" y="-204" width="1148" height="738" fill="#313131"/>
<g id="Rectangle 13" filter="url(#filter0_d_0_1)">
<rect x="-89" y="-204" width="1148" height="738" fill="white"/>
</g>
<g id="logo 3">
<g id="Ellipse 51" filter="url(#filter1_d_0_1)">
<circle cx="15" cy="15" r="24" fill="white"/>
</g>
<g id="heroicons-outline:ticket">
<g id="Group">
<path id="Vector (Stroke)" fill-rule="evenodd" clip-rule="evenodd" d="M3.59835 6.09835C4.30161 5.39509 5.25544 5 6.25 5H23.75C24.7446 5 25.6984 5.39509 26.4017 6.09835C27.1049 6.80161 27.5 7.75544 27.5 8.75V12.5C27.5 12.8315 27.3683 13.1495 27.1339 13.3839C26.8995 13.6183 26.5815 13.75 26.25 13.75C25.9185 13.75 25.6005 13.8817 25.3661 14.1161C25.1317 14.3505 25 14.6685 25 15C25 15.3315 25.1317 15.6495 25.3661 15.8839C25.6005 16.1183 25.9185 16.25 26.25 16.25C26.9404 16.25 27.5 16.8096 27.5 17.5V21.25C27.5 22.2446 27.1049 23.1984 26.4017 23.9016C25.6984 24.6049 24.7446 25 23.75 25H6.25C5.25544 25 4.30161 24.6049 3.59835 23.9016C2.89509 23.1984 2.5 22.2446 2.5 21.25V17.5C2.5 16.8096 3.05964 16.25 3.75 16.25C4.08152 16.25 4.39946 16.1183 4.63388 15.8839C4.8683 15.6495 5 15.3315 5 15C5 14.6685 4.8683 14.3505 4.63388 14.1161C4.39946 13.8817 4.08152 13.75 3.75 13.75C3.05964 13.75 2.5 13.1904 2.5 12.5V8.75C2.5 7.75544 2.89509 6.80161 3.59835 6.09835ZM20 22.5V21.25C20 20.5596 19.4404 20 18.75 20C18.0596 20 17.5 20.5596 17.5 21.25V22.5H6.25C5.91848 22.5 5.60054 22.3683 5.36612 22.1339C5.1317 21.8995 5 21.5815 5 21.25V18.5355C5.52238 18.3508 6.00239 18.0509 6.40165 17.6516C7.10491 16.9484 7.5 15.9946 7.5 15C7.5 14.0054 7.10491 13.0516 6.40165 12.3484C6.00239 11.9491 5.52238 11.6492 5 11.4645V8.75C5 8.41848 5.1317 8.10054 5.36612 7.86612C5.60054 7.6317 5.91848 7.5 6.25 7.5H17.5V8.75C17.5 9.44036 18.0596 10 18.75 10C19.4404 10 20 9.44036 20 8.75V7.5H23.75C24.0815 7.5 24.3995 7.6317 24.6339 7.86612C24.8683 8.10054 25 8.41848 25 8.75V11.4645C24.4776 11.6492 23.9976 11.9491 23.5984 12.3484C22.8951 13.0516 22.5 14.0054 22.5 15C22.5 15.9946 22.8951 16.9484 23.5984 17.6516C23.9976 18.0509 24.4776 18.3508 25 18.5355V21.25C25 21.5815 24.8683 21.8995 24.6339 22.1339C24.3995 22.3683 24.0815 22.5 23.75 22.5H20ZM18.75 12.5C19.4404 12.5 20 13.0596 20 13.75V16.25C20 16.9404 19.4404 17.5 18.75 17.5C18.0596 17.5 17.5 16.9404 17.5 16.25V13.75C17.5 13.0596 18.0596 12.5 18.75 12.5Z" fill="#0DB76F"/>
</g>
</g>
</g>
</g>
</g>
<defs>
<filter id="filter0_d_0_1" x="-110" y="-222" width="1220" height="810" filterUnits="userSpaceOnUse" color-interpolation-filters="sRGB">
<feFlood flood-opacity="0" result="BackgroundImageFix"/>
<feColorMatrix in="SourceAlpha" type="matrix" values="0 0 0 0 0 0 0 0 0 0 0 0 0 0 0 0 0 0 127 0" result="hardAlpha"/>
<feOffset dx="15" dy="18"/>
<feGaussianBlur stdDeviation="18"/>
<feColorMatrix type="matrix" values="0 0 0 0 0.15 0 0 0 0 0.15 0 0 0 0 0.15 0 0 0 0.04 0"/>
<feBlend mode="normal" in2="BackgroundImageFix" result="effect1_dropShadow_0_1"/>
<feBlend mode="normal" in="SourceGraphic" in2="effect1_dropShadow_0_1" result="shape"/>
</filter>
<filter id="filter1_d_0_1" x="-37" y="-34" width="110" height="110" filterUnits="userSpaceOnUse" color-interpolation-filters="sRGB">
<feFlood flood-opacity="0" result="BackgroundImageFix"/>
<feColorMatrix in="SourceAlpha" type="matrix" values="0 0 0 0 0 0 0 0 0 0 0 0 0 0 0 0 0 0 127 0" result="hardAlpha"/>
<feOffset dx="3" dy="6"/>
<feGaussianBlur stdDeviation="15.5"/>
<feComposite in2="hardAlpha" operator="out"/>
<feColorMatrix type="matrix" values="0 0 0 0 0 0 0 0 0 0 0 0 0 0 0 0 0 0 0.1 0"/>
<feBlend mode="normal" in2="BackgroundImageFix" result="effect1_dropShadow_0_1"/>
<feBlend mode="normal" in="SourceGraphic" in2="effect1_dropShadow_0_1" result="shape"/>
</filter>
<clipPath id="clip0_0_1">
<rect width="1440" height="4726" fill="white" transform="translate(-235 -2085)"/>
</clipPath>
</defs>
</svg>
